<svg class="chart" viewBox="0 0 760 704" role="img" preserveAspectRatio="xMinYMin meet" xmlns="http://www.w3.org/2000/svg"><style>svg{--bg:#000000;--fg:#e2e6e2;--muted:#aab0aa;--dim:#5c645c;--line:#182818;--panel:#0a120a;--accent:#33ff33;--green-dim:#28d128;--green-muted:#1a5a1a;--bad-bg:#2a1214;--bad-fg:#ff9a9f;--good-bg:#0f2a12;--good-fg:#7fd98f;--barbg:#182818;--chip:#0f1f0f;--db-c:#6fb2e8;--db-u:#e8a83a;--db-sa:#b491f0;}svg{font:11px 'IBM Plex Mono',ui-monospace,Menlo,monospace}text{fill:var(--fg)}text.tick,text.ax{fill:var(--muted)}text.big{font-size:12px;font-weight:600}</style><rect width="100%" height="100%" fill="var(--bg)"/><rect x="671.3" y="16.0" width="33.9" height="632.0" fill="var(--accent)" opacity="0.1"/><line x1="300.2" y1="16.0" x2="300.2" y2="648.0" stroke="var(--line)" stroke-width="1"/><text x="300.2" y="662.0" text-anchor="middle" class="tick">0.1×</text><line x1="417.2" y1="16.0" x2="417.2" y2="648.0" stroke="var(--line)" stroke-width="1"/><text x="417.2" y="662.0" text-anchor="middle" class="tick">0.2×</text><line x1="572.0" y1="16.0" x2="572.0" y2="648.0" stroke="var(--line)" stroke-width="1"/><text x="572.0" y="662.0" text-anchor="middle" class="tick">0.5×</text><line x1="689.1" y1="16.0" x2="689.1" y2="648.0" stroke="var(--line)" stroke-width="1"/><text x="689.1" y="662.0" text-anchor="middle" class="tick">1×</text><line x1="689.1" y1="16.0" x2="689.1" y2="648.0" stroke="var(--muted)" stroke-width="1" stroke-dasharray="3 3"/><text x="240.0" y="32.0" text-anchor="end" class="tick">BALANCE absent</text><line x1="321.6" y1="29.0" x2="302.4" y2="29.0" stroke="var(--dim)" stroke-width="1.5"/><circle cx="321.6" cy="29.0" r="3.2" fill="var(--db-u)"><title>BALANCE NON_EXISTING_ACCOUNT before 0.114×</title></circle><circle cx="302.4" cy="29.0" r="3.6" fill="var(--accent)"><title>BALANCE NON_EXISTING_ACCOUNT after 0.101×</title></circle><text x="240.0" y="45.0" text-anchor="end" class="tick">EXTCODESIZE absent</text><line x1="317.7" y1="42.0" x2="305.3" y2="42.0" stroke="var(--dim)" stroke-width="1.5"/><circle cx="317.7" cy="42.0" r="3.2" fill="var(--db-u)"><title>EXTCODESIZE NON_EXISTING_ACCOUNT before 0.111×</title></circle><circle cx="305.3" cy="42.0" r="3.6" fill="var(--accent)"><title>EXTCODESIZE NON_EXISTING_ACCOUNT after 0.103×</title></circle><text x="240.0" y="58.0" text-anchor="end" class="tick">EXTCODEHASH absent</text><line x1="321.0" y1="55.0" x2="306.9" y2="55.0" stroke="var(--dim)" stroke-width="1.5"/><circle cx="321.0" cy="55.0" r="3.2" fill="var(--db-u)"><title>EXTCODEHASH NON_EXISTING_ACCOUNT before 0.113×</title></circle><circle cx="306.9" cy="55.0" r="3.6" fill="var(--accent)"><title>EXTCODEHASH NON_EXISTING_ACCOUNT after 0.104×</title></circle><text x="240.0" y="71.0" text-anchor="end" class="tick">EXTCODECOPY absent</text><line x1="325.5" y1="68.0" x2="312.2" y2="68.0" stroke="var(--dim)" stroke-width="1.5"/><circle cx="325.5" cy="68.0" r="3.2" fill="var(--db-u)"><title>EXTCODECOPY NON_EXISTING_ACCOUNT before 0.116×</title></circle><circle cx="312.2" cy="68.0" r="3.6" fill="var(--accent)"><title>EXTCODECOPY NON_EXISTING_ACCOUNT after 0.107×</title></circle><text x="240.0" y="84.0" text-anchor="end" class="tick">DELEGATECALL absent</text><line x1="328.8" y1="81.0" x2="321.0" y2="81.0" stroke="var(--dim)" stroke-width="1.5"/><circle cx="328.8" cy="81.0" r="3.2" fill="var(--db-u)"><title>DELEGATECALL NON_EXISTING_ACCOUNT before 0.118×</title></circle><circle cx="321.0" cy="81.0" r="3.6" fill="var(--accent)"><title>DELEGATECALL NON_EXISTING_ACCOUNT after 0.113×</title></circle><text x="240.0" y="97.0" text-anchor="end" class="tick">STATICCALL absent</text><line x1="341.5" y1="94.0" x2="337.9" y2="94.0" stroke="var(--dim)" stroke-width="1.5"/><circle cx="341.5" cy="94.0" r="3.2" fill="var(--db-u)"><title>STATICCALL NON_EXISTING_ACCOUNT before 0.128×</title></circle><circle cx="337.9" cy="94.0" r="3.6" fill="var(--accent)"><title>STATICCALL NON_EXISTING_ACCOUNT after 0.125×</title></circle><text x="240.0" y="110.0" text-anchor="end" class="tick">CALLCODE absent</text><line x1="371.2" y1="107.0" x2="375.5" y2="107.0" stroke="var(--dim)" stroke-width="1.5"/><circle cx="371.2" cy="107.0" r="3.2" fill="var(--db-u)"><title>CALLCODE NON_EXISTING_ACCOUNT before 0.152×</title></circle><circle cx="375.5" cy="107.0" r="3.6" fill="var(--accent)"><title>CALLCODE NON_EXISTING_ACCOUNT after 0.156×</title></circle><text x="240.0" y="123.0" text-anchor="end" class="tick">CALL absent</text><line x1="550.6" y1="120.0" x2="555.5" y2="120.0" stroke="var(--dim)" stroke-width="1.5"/><circle cx="550.6" cy="120.0" r="3.2" fill="var(--db-u)"><title>CALL NON_EXISTING_ACCOUNT before 0.440×</title></circle><circle cx="555.5" cy="120.0" r="3.6" fill="var(--accent)"><title>CALL NON_EXISTING_ACCOUNT after 0.453×</title></circle><text x="240.0" y="136.0" text-anchor="end" class="tick">BALANCE DIFF_MAX</text><line x1="289.2" y1="133.0" x2="653.6" y2="133.0" stroke="var(--dim)" stroke-width="1.5"/><circle cx="289.2" cy="133.0" r="3.2" fill="var(--db-u)"><title>BALANCE EXISTING_CONTRACT_DIFF_MAX before 0.094×</title></circle><circle cx="653.6" cy="133.0" r="3.6" fill="var(--accent)"><title>BALANCE EXISTING_CONTRACT_DIFF_MAX after 0.810×</title></circle><text x="240.0" y="149.0" text-anchor="end" class="tick">BALANCE JUMPDEST</text><line x1="310.0" y1="146.0" x2="653.7" y2="146.0" stroke="var(--dim)" stroke-width="1.5"/><circle cx="310.0" cy="146.0" r="3.2" fill="var(--db-u)"><title>BALANCE EXISTING_CONTRACT_JUMPDEST before 0.106×</title></circle><circle cx="653.7" cy="146.0" r="3.6" fill="var(--accent)"><title>BALANCE EXISTING_CONTRACT_JUMPDEST after 0.811×</title></circle><text x="240.0" y="162.0" text-anchor="end" class="tick">EXTCODEHASH DIFF_MAX</text><line x1="288.6" y1="159.0" x2="654.6" y2="159.0" stroke="var(--dim)" stroke-width="1.5"/><circle cx="288.6" cy="159.0" r="3.2" fill="var(--db-u)"><title>EXTCODEHASH EXISTING_CONTRACT_DIFF_MAX before 0.093×</title></circle><circle cx="654.6" cy="159.0" r="3.6" fill="var(--accent)"><title>EXTCODEHASH EXISTING_CONTRACT_DIFF_MAX after 0.815×</title></circle><text x="240.0" y="175.0" text-anchor="end" class="tick">EXTCODEHASH JUMPDEST</text><line x1="307.3" y1="172.0" x2="655.2" y2="172.0" stroke="var(--dim)" stroke-width="1.5"/><circle cx="307.3" cy="172.0" r="3.2" fill="var(--db-u)"><title>EXTCODEHASH EXISTING_CONTRACT_JUMPDEST before 0.104×</title></circle><circle cx="655.2" cy="172.0" r="3.6" fill="var(--accent)"><title>EXTCODEHASH EXISTING_CONTRACT_JUMPDEST after 0.818×</title></circle><text x="240.0" y="188.0" text-anchor="end" class="tick">DELEGATECALL DIFF_MAX</text><line x1="287.7" y1="185.0" x2="655.4" y2="185.0" stroke="var(--dim)" stroke-width="1.5"/><circle cx="287.7" cy="185.0" r="3.2" fill="var(--db-u)"><title>DELEGATECALL EXISTING_CONTRACT_DIFF_MAX before 0.093×</title></circle><circle cx="655.4" cy="185.0" r="3.6" fill="var(--accent)"><title>DELEGATECALL EXISTING_CONTRACT_DIFF_MAX after 0.819×</title></circle><text x="240.0" y="201.0" text-anchor="end" class="tick">DELEGATECALL JUMPDEST</text><line x1="317.5" y1="198.0" x2="656.2" y2="198.0" stroke="var(--dim)" stroke-width="1.5"/><circle cx="317.5" cy="198.0" r="3.2" fill="var(--db-u)"><title>DELEGATECALL EXISTING_CONTRACT_JUMPDEST before 0.111×</title></circle><circle cx="656.2" cy="198.0" r="3.6" fill="var(--accent)"><title>DELEGATECALL EXISTING_CONTRACT_JUMPDEST after 0.823×</title></circle><text x="240.0" y="214.0" text-anchor="end" class="tick">EXTCODECOPY JUMPDEST</text><line x1="314.2" y1="211.0" x2="656.2" y2="211.0" stroke="var(--dim)" stroke-width="1.5"/><circle cx="314.2" cy="211.0" r="3.2" fill="var(--db-u)"><title>EXTCODECOPY EXISTING_CONTRACT_JUMPDEST before 0.109×</title></circle><circle cx="656.2" cy="211.0" r="3.6" fill="var(--accent)"><title>EXTCODECOPY EXISTING_CONTRACT_JUMPDEST after 0.823×</title></circle><text x="240.0" y="227.0" text-anchor="end" class="tick">EXTCODECOPY DIFF_MAX</text><line x1="296.5" y1="224.0" x2="656.3" y2="224.0" stroke="var(--dim)" stroke-width="1.5"/><circle cx="296.5" cy="224.0" r="3.2" fill="var(--db-u)"><title>EXTCODECOPY EXISTING_CONTRACT_DIFF_MAX before 0.098×</title></circle><circle cx="656.3" cy="224.0" r="3.6" fill="var(--accent)"><title>EXTCODECOPY EXISTING_CONTRACT_DIFF_MAX after 0.823×</title></circle><text x="240.0" y="240.0" text-anchor="end" class="tick">STATICCALL DIFF_MAX</text><line x1="295.7" y1="237.0" x2="656.4" y2="237.0" stroke="var(--dim)" stroke-width="1.5"/><circle cx="295.7" cy="237.0" r="3.2" fill="var(--db-u)"><title>STATICCALL EXISTING_CONTRACT_DIFF_MAX before 0.097×</title></circle><circle cx="656.4" cy="237.0" r="3.6" fill="var(--accent)"><title>STATICCALL EXISTING_CONTRACT_DIFF_MAX after 0.824×</title></circle><text x="240.0" y="253.0" text-anchor="end" class="tick">EXTCODESIZE DIFF_MAX</text><line x1="291.7" y1="250.0" x2="656.4" y2="250.0" stroke="var(--dim)" stroke-width="1.5"/><circle cx="291.7" cy="250.0" r="3.2" fill="var(--db-u)"><title>EXTCODESIZE EXISTING_CONTRACT_DIFF_MAX before 0.095×</title></circle><circle cx="656.4" cy="250.0" r="3.6" fill="var(--accent)"><title>EXTCODESIZE EXISTING_CONTRACT_DIFF_MAX after 0.824×</title></circle><text x="240.0" y="266.0" text-anchor="end" class="tick">EXTCODESIZE JUMPDEST</text><line x1="308.9" y1="263.0" x2="656.4" y2="263.0" stroke="var(--dim)" stroke-width="1.5"/><circle cx="308.9" cy="263.0" r="3.2" fill="var(--db-u)"><title>EXTCODESIZE EXISTING_CONTRACT_JUMPDEST before 0.105×</title></circle><circle cx="656.4" cy="263.0" r="3.6" fill="var(--accent)"><title>EXTCODESIZE EXISTING_CONTRACT_JUMPDEST after 0.824×</title></circle><text x="240.0" y="279.0" text-anchor="end" class="tick">STATICCALL JUMPDEST</text><line x1="318.3" y1="276.0" x2="657.4" y2="276.0" stroke="var(--dim)" stroke-width="1.5"/><circle cx="318.3" cy="276.0" r="3.2" fill="var(--db-u)"><title>STATICCALL EXISTING_CONTRACT_JUMPDEST before 0.111×</title></circle><circle cx="657.4" cy="276.0" r="3.6" fill="var(--accent)"><title>STATICCALL EXISTING_CONTRACT_JUMPDEST after 0.829×</title></circle><text x="240.0" y="292.0" text-anchor="end" class="tick">CALLCODE JUMPDEST</text><line x1="397.1" y1="289.0" x2="661.2" y2="289.0" stroke="var(--dim)" stroke-width="1.5"/><circle cx="397.1" cy="289.0" r="3.2" fill="var(--db-u)"><title>CALLCODE EXISTING_CONTRACT_JUMPDEST before 0.178×</title></circle><circle cx="661.2" cy="289.0" r="3.6" fill="var(--accent)"><title>CALLCODE EXISTING_CONTRACT_JUMPDEST after 0.848×</title></circle><text x="240.0" y="305.0" text-anchor="end" class="tick">CALLCODE DIFF_MAX</text><line x1="367.7" y1="302.0" x2="661.9" y2="302.0" stroke="var(--dim)" stroke-width="1.5"/><circle cx="367.7" cy="302.0" r="3.2" fill="var(--db-u)"><title>CALLCODE EXISTING_CONTRACT_DIFF_MAX before 0.149×</title></circle><circle cx="661.9" cy="302.0" r="3.6" fill="var(--accent)"><title>CALLCODE EXISTING_CONTRACT_DIFF_MAX after 0.851×</title></circle><text x="240.0" y="318.0" text-anchor="end" class="tick">CALL JUMPDEST</text><line x1="414.5" y1="315.0" x2="664.5" y2="315.0" stroke="var(--dim)" stroke-width="1.5"/><circle cx="414.5" cy="315.0" r="3.2" fill="var(--db-u)"><title>CALL EXISTING_CONTRACT_JUMPDEST before 0.197×</title></circle><circle cx="664.5" cy="315.0" r="3.6" fill="var(--accent)"><title>CALL EXISTING_CONTRACT_JUMPDEST after 0.864×</title></circle><text x="240.0" y="331.0" text-anchor="end" class="tick">CALL DIFF_MAX</text><line x1="390.1" y1="328.0" x2="666.9" y2="328.0" stroke="var(--dim)" stroke-width="1.5"/><circle cx="390.1" cy="328.0" r="3.2" fill="var(--db-u)"><title>CALL EXISTING_CONTRACT_DIFF_MAX before 0.170×</title></circle><circle cx="666.9" cy="328.0" r="3.6" fill="var(--accent)"><title>CALL EXISTING_CONTRACT_DIFF_MAX after 0.877×</title></circle><text x="240.0" y="344.0" text-anchor="end" class="tick">CALL SAME_MAX</text><line x1="424.5" y1="341.0" x2="678.5" y2="341.0" stroke="var(--dim)" stroke-width="1.5"/><circle cx="424.5" cy="341.0" r="3.2" fill="var(--db-u)"><title>CALL EXISTING_CONTRACT_SAME_MAX before 0.209×</title></circle><circle cx="678.5" cy="341.0" r="3.6" fill="var(--accent)"><title>CALL EXISTING_CONTRACT_SAME_MAX after 0.939×</title></circle><text x="240.0" y="357.0" text-anchor="end" class="tick">CALL MINIMAL</text><line x1="424.7" y1="354.0" x2="678.5" y2="354.0" stroke="var(--dim)" stroke-width="1.5"/><circle cx="424.7" cy="354.0" r="3.2" fill="var(--db-u)"><title>CALL EXISTING_CONTRACT_MINIMAL before 0.209×</title></circle><circle cx="678.5" cy="354.0" r="3.6" fill="var(--accent)"><title>CALL EXISTING_CONTRACT_MINIMAL after 0.939×</title></circle><text x="240.0" y="370.0" text-anchor="end" class="tick">DELEGATECALL SAME_MAX</text><line x1="371.9" y1="367.0" x2="678.5" y2="367.0" stroke="var(--dim)" stroke-width="1.5"/><circle cx="371.9" cy="367.0" r="3.2" fill="var(--db-u)"><title>DELEGATECALL EXISTING_CONTRACT_SAME_MAX before 0.153×</title></circle><circle cx="678.5" cy="367.0" r="3.6" fill="var(--accent)"><title>DELEGATECALL EXISTING_CONTRACT_SAME_MAX after 0.939×</title></circle><text x="240.0" y="383.0" text-anchor="end" class="tick">CALL EOA</text><line x1="450.0" y1="380.0" x2="678.7" y2="380.0" stroke="var(--dim)" stroke-width="1.5"/><circle cx="450.0" cy="380.0" r="3.2" fill="var(--db-u)"><title>CALL EXISTING_EOA before 0.243×</title></circle><circle cx="678.7" cy="380.0" r="3.6" fill="var(--accent)"><title>CALL EXISTING_EOA after 0.940×</title></circle><text x="240.0" y="396.0" text-anchor="end" class="tick">BALANCE EOA</text><line x1="382.5" y1="393.0" x2="679.1" y2="393.0" stroke="var(--dim)" stroke-width="1.5"/><circle cx="382.5" cy="393.0" r="3.2" fill="var(--db-u)"><title>BALANCE EXISTING_EOA before 0.163×</title></circle><circle cx="679.1" cy="393.0" r="3.6" fill="var(--accent)"><title>BALANCE EXISTING_EOA after 0.942×</title></circle><text x="240.0" y="409.0" text-anchor="end" class="tick">STATICCALL MINIMAL</text><line x1="374.8" y1="406.0" x2="679.1" y2="406.0" stroke="var(--dim)" stroke-width="1.5"/><circle cx="374.8" cy="406.0" r="3.2" fill="var(--db-u)"><title>STATICCALL EXISTING_CONTRACT_MINIMAL before 0.156×</title></circle><circle cx="679.1" cy="406.0" r="3.6" fill="var(--accent)"><title>STATICCALL EXISTING_CONTRACT_MINIMAL after 0.942×</title></circle><text x="240.0" y="422.0" text-anchor="end" class="tick">BALANCE SAME_MAX</text><line x1="373.6" y1="419.0" x2="679.3" y2="419.0" stroke="var(--dim)" stroke-width="1.5"/><circle cx="373.6" cy="419.0" r="3.2" fill="var(--db-u)"><title>BALANCE EXISTING_CONTRACT_SAME_MAX before 0.154×</title></circle><circle cx="679.3" cy="419.0" r="3.6" fill="var(--accent)"><title>BALANCE EXISTING_CONTRACT_SAME_MAX after 0.943×</title></circle><text x="240.0" y="435.0" text-anchor="end" class="tick">EXTCODESIZE SAME_MAX</text><line x1="373.6" y1="432.0" x2="679.3" y2="432.0" stroke="var(--dim)" stroke-width="1.5"/><circle cx="373.6" cy="432.0" r="3.2" fill="var(--db-u)"><title>EXTCODESIZE EXISTING_CONTRACT_SAME_MAX before 0.154×</title></circle><circle cx="679.3" cy="432.0" r="3.6" fill="var(--accent)"><title>EXTCODESIZE EXISTING_CONTRACT_SAME_MAX after 0.944×</title></circle><text x="240.0" y="448.0" text-anchor="end" class="tick">DELEGATECALL MINIMAL</text><line x1="380.1" y1="445.0" x2="679.5" y2="445.0" stroke="var(--dim)" stroke-width="1.5"/><circle cx="380.1" cy="445.0" r="3.2" fill="var(--db-u)"><title>DELEGATECALL EXISTING_CONTRACT_MINIMAL before 0.160×</title></circle><circle cx="679.5" cy="445.0" r="3.6" fill="var(--accent)"><title>DELEGATECALL EXISTING_CONTRACT_MINIMAL after 0.945×</title></circle><text x="240.0" y="461.0" text-anchor="end" class="tick">EXTCODEHASH SAME_MAX</text><line x1="384.7" y1="458.0" x2="679.6" y2="458.0" stroke="var(--dim)" stroke-width="1.5"/><circle cx="384.7" cy="458.0" r="3.2" fill="var(--db-u)"><title>EXTCODEHASH EXISTING_CONTRACT_SAME_MAX before 0.165×</title></circle><circle cx="679.6" cy="458.0" r="3.6" fill="var(--accent)"><title>EXTCODEHASH EXISTING_CONTRACT_SAME_MAX after 0.945×</title></circle><text x="240.0" y="474.0" text-anchor="end" class="tick">EXTCODECOPY SAME_MAX</text><line x1="385.0" y1="471.0" x2="680.0" y2="471.0" stroke="var(--dim)" stroke-width="1.5"/><circle cx="385.0" cy="471.0" r="3.2" fill="var(--db-u)"><title>EXTCODECOPY EXISTING_CONTRACT_SAME_MAX before 0.165×</title></circle><circle cx="680.0" cy="471.0" r="3.6" fill="var(--accent)"><title>EXTCODECOPY EXISTING_CONTRACT_SAME_MAX after 0.947×</title></circle><text x="240.0" y="487.0" text-anchor="end" class="tick">STATICCALL SAME_MAX</text><line x1="378.9" y1="484.0" x2="680.0" y2="484.0" stroke="var(--dim)" stroke-width="1.5"/><circle cx="378.9" cy="484.0" r="3.2" fill="var(--db-u)"><title>STATICCALL EXISTING_CONTRACT_SAME_MAX before 0.159×</title></circle><circle cx="680.0" cy="484.0" r="3.6" fill="var(--accent)"><title>STATICCALL EXISTING_CONTRACT_SAME_MAX after 0.947×</title></circle><text x="240.0" y="500.0" text-anchor="end" class="tick">EXTCODESIZE MINIMAL</text><line x1="379.0" y1="497.0" x2="680.1" y2="497.0" stroke="var(--dim)" stroke-width="1.5"/><circle cx="379.0" cy="497.0" r="3.2" fill="var(--db-u)"><title>EXTCODESIZE EXISTING_CONTRACT_MINIMAL before 0.159×</title></circle><circle cx="680.1" cy="497.0" r="3.6" fill="var(--accent)"><title>EXTCODESIZE EXISTING_CONTRACT_MINIMAL after 0.948×</title></circle><text x="240.0" y="513.0" text-anchor="end" class="tick">CALLCODE SAME_MAX</text><line x1="448.2" y1="510.0" x2="680.1" y2="510.0" stroke="var(--dim)" stroke-width="1.5"/><circle cx="448.2" cy="510.0" r="3.2" fill="var(--db-u)"><title>CALLCODE EXISTING_CONTRACT_SAME_MAX before 0.240×</title></circle><circle cx="680.1" cy="510.0" r="3.6" fill="var(--accent)"><title>CALLCODE EXISTING_CONTRACT_SAME_MAX after 0.948×</title></circle><text x="240.0" y="526.0" text-anchor="end" class="tick">EXTCODESIZE EOA</text><line x1="382.1" y1="523.0" x2="680.3" y2="523.0" stroke="var(--dim)" stroke-width="1.5"/><circle cx="382.1" cy="523.0" r="3.2" fill="var(--db-u)"><title>EXTCODESIZE EXISTING_EOA before 0.162×</title></circle><circle cx="680.3" cy="523.0" r="3.6" fill="var(--accent)"><title>EXTCODESIZE EXISTING_EOA after 0.949×</title></circle><text x="240.0" y="539.0" text-anchor="end" class="tick">DELEGATECALL EOA</text><line x1="378.7" y1="536.0" x2="680.3" y2="536.0" stroke="var(--dim)" stroke-width="1.5"/><circle cx="378.7" cy="536.0" r="3.2" fill="var(--db-u)"><title>DELEGATECALL EXISTING_EOA before 0.159×</title></circle><circle cx="680.3" cy="536.0" r="3.6" fill="var(--accent)"><title>DELEGATECALL EXISTING_EOA after 0.949×</title></circle><text x="240.0" y="552.0" text-anchor="end" class="tick">EXTCODECOPY EOA</text><line x1="380.5" y1="549.0" x2="680.4" y2="549.0" stroke="var(--dim)" stroke-width="1.5"/><circle cx="380.5" cy="549.0" r="3.2" fill="var(--db-u)"><title>EXTCODECOPY EXISTING_EOA before 0.161×</title></circle><circle cx="680.4" cy="549.0" r="3.6" fill="var(--accent)"><title>EXTCODECOPY EXISTING_EOA after 0.949×</title></circle><text x="240.0" y="565.0" text-anchor="end" class="tick">EXTCODEHASH EOA</text><line x1="378.8" y1="562.0" x2="680.4" y2="562.0" stroke="var(--dim)" stroke-width="1.5"/><circle cx="378.8" cy="562.0" r="3.2" fill="var(--db-u)"><title>EXTCODEHASH EXISTING_EOA before 0.159×</title></circle><circle cx="680.4" cy="562.0" r="3.6" fill="var(--accent)"><title>EXTCODEHASH EXISTING_EOA after 0.950×</title></circle><text x="240.0" y="578.0" text-anchor="end" class="tick">CALLCODE MINIMAL</text><line x1="441.5" y1="575.0" x2="680.5" y2="575.0" stroke="var(--dim)" stroke-width="1.5"/><circle cx="441.5" cy="575.0" r="3.2" fill="var(--db-u)"><title>CALLCODE EXISTING_CONTRACT_MINIMAL before 0.231×</title></circle><circle cx="680.5" cy="575.0" r="3.6" fill="var(--accent)"><title>CALLCODE EXISTING_CONTRACT_MINIMAL after 0.950×</title></circle><text x="240.0" y="591.0" text-anchor="end" class="tick">EXTCODEHASH MINIMAL</text><line x1="372.7" y1="588.0" x2="680.5" y2="588.0" stroke="var(--dim)" stroke-width="1.5"/><circle cx="372.7" cy="588.0" r="3.2" fill="var(--db-u)"><title>EXTCODEHASH EXISTING_CONTRACT_MINIMAL before 0.154×</title></circle><circle cx="680.5" cy="588.0" r="3.6" fill="var(--accent)"><title>EXTCODEHASH EXISTING_CONTRACT_MINIMAL after 0.950×</title></circle><text x="240.0" y="604.0" text-anchor="end" class="tick">BALANCE MINIMAL</text><line x1="376.9" y1="601.0" x2="680.7" y2="601.0" stroke="var(--dim)" stroke-width="1.5"/><circle cx="376.9" cy="601.0" r="3.2" fill="var(--db-u)"><title>BALANCE EXISTING_CONTRACT_MINIMAL before 0.158×</title></circle><circle cx="680.7" cy="601.0" r="3.6" fill="var(--accent)"><title>BALANCE EXISTING_CONTRACT_MINIMAL after 0.951×</title></circle><text x="240.0" y="617.0" text-anchor="end" class="tick">EXTCODECOPY MINIMAL</text><line x1="384.0" y1="614.0" x2="680.8" y2="614.0" stroke="var(--dim)" stroke-width="1.5"/><circle cx="384.0" cy="614.0" r="3.2" fill="var(--db-u)"><title>EXTCODECOPY EXISTING_CONTRACT_MINIMAL before 0.164×</title></circle><circle cx="680.8" cy="614.0" r="3.6" fill="var(--accent)"><title>EXTCODECOPY EXISTING_CONTRACT_MINIMAL after 0.952×</title></circle><text x="240.0" y="630.0" text-anchor="end" class="tick">STATICCALL EOA</text><line x1="384.0" y1="627.0" x2="681.3" y2="627.0" stroke="var(--dim)" stroke-width="1.5"/><circle cx="384.0" cy="627.0" r="3.2" fill="var(--db-u)"><title>STATICCALL EXISTING_EOA before 0.164×</title></circle><circle cx="681.3" cy="627.0" r="3.6" fill="var(--accent)"><title>STATICCALL EXISTING_EOA after 0.955×</title></circle><text x="240.0" y="643.0" text-anchor="end" class="tick">CALLCODE EOA</text><line x1="447.0" y1="640.0" x2="682.3" y2="640.0" stroke="var(--dim)" stroke-width="1.5"/><circle cx="447.0" cy="640.0" r="3.2" fill="var(--db-u)"><title>CALLCODE EXISTING_EOA before 0.239×</title></circle><circle cx="682.3" cy="640.0" r="3.6" fill="var(--accent)"><title>CALLCODE EXISTING_EOA after 0.960×</title></circle><text x="250.0" y="676.0" text-anchor="start" class="ax">state-actor ÷ snapshot, throughput</text><circle cx="254.0" cy="690.0" r="3.6" fill="var(--db-u)"></circle><text x="262.0" y="694.0" text-anchor="start" class="ax">as published</text><circle cx="367.2" cy="690.0" r="3.6" fill="var(--accent)"></circle><text x="375.2" y="694.0" text-anchor="start" class="ax">compacted</text><text x="455.1" y="694.0" text-anchor="start" class="ax">shaded band = ±10% of parity</text></svg>
