<svg class="chart" viewBox="0 0 760 218" role="img" preserveAspectRatio="xMinYMin meet" xmlns="http://www.w3.org/2000/svg"><style>svg{--bg:#000000;--fg:#e2e6e2;--muted:#aab0aa;--dim:#5c645c;--line:#182818;--panel:#0a120a;--accent:#33ff33;--green-dim:#28d128;--green-muted:#1a5a1a;--bad-bg:#2a1214;--bad-fg:#ff9a9f;--good-bg:#0f2a12;--good-fg:#7fd98f;--barbg:#182818;--chip:#0f1f0f;--db-c:#6fb2e8;--db-u:#e8a83a;--db-sa:#b491f0;font:11px 'IBM Plex Mono',ui-monospace,Menlo,monospace}text{fill:var(--fg)}text.tick,text.ax{fill:var(--muted)}text.big{font-size:12px;font-weight:600}</style><rect width="100%" height="100%" fill="var(--bg)"/><text x="190.0" y="16.0" text-anchor="start" class="big">state-actor / jochemnet, before and after compacting the pre-run</text><rect x="522.4" y="34.0" width="19.6" height="146.0" fill="var(--accent)" opacity="0.1"/><line x1="532.6" y1="34.0" x2="532.6" y2="180.0" stroke="var(--green-muted)" stroke-width="1"/><text x="180.0" y="40.0" text-anchor="end" class="big">tests ≥ 1 s</text><text x="180.0" y="60.0" text-anchor="end">account reads</text><line x1="253.9" y1="56.0" x2="530.4" y2="56.0" stroke="var(--green-muted)" stroke-width="2"/><circle cx="253.9" cy="56.0" r="4.5" fill="var(--db-u)"><title>account reads baseline 0.058</title></circle><circle cx="530.4" cy="56.0" r="5" fill="var(--accent)"><title>account reads pre-run compacted 0.977</title></circle><text x="650.0" y="60.0" text-anchor="start" class="tick">0.06 → 0.98</text><text x="180.0" y="82.0" text-anchor="end">code, reused or small</text><line x1="266.6" y1="78.0" x2="530.8" y2="78.0" stroke="var(--green-muted)" stroke-width="2"/><circle cx="266.6" cy="78.0" r="4.5" fill="var(--db-u)"><title>code, reused or small baseline 0.066</title></circle><circle cx="530.8" cy="78.0" r="5" fill="var(--accent)"><title>code, reused or small pre-run compacted 0.981</title></circle><text x="650.0" y="82.0" text-anchor="start" class="tick">0.07 → 0.98</text><text x="180.0" y="104.0" text-anchor="end">code, distinct large</text><line x1="425.8" y1="100.0" x2="519.0" y2="100.0" stroke="var(--green-muted)" stroke-width="2"/><circle cx="425.8" cy="100.0" r="4.5" fill="var(--db-u)"><title>code, distinct large baseline 0.335</title></circle><circle cx="519.0" cy="100.0" r="5" fill="var(--accent)"><title>code, distinct large pre-run compacted 0.870</title></circle><text x="650.0" y="104.0" text-anchor="start" class="tick">0.33 → 0.87</text><text x="180.0" y="128.0" text-anchor="end" class="big">tests &lt; 1 s</text><text x="180.0" y="148.0" text-anchor="end">absent accounts</text><line x1="534.7" y1="144.0" x2="526.5" y2="144.0" stroke="var(--green-muted)" stroke-width="2"/><circle cx="534.7" cy="144.0" r="4.5" fill="var(--db-u)"><title>absent accounts baseline 1.021</title></circle><circle cx="526.5" cy="144.0" r="5" fill="var(--accent)"><title>absent accounts pre-run compacted 0.940</title></circle><text x="650.0" y="148.0" text-anchor="start" class="tick">1.02 → 0.94</text><text x="180.0" y="170.0" text-anchor="end">no state work</text><line x1="501.7" y1="166.0" x2="497.5" y2="166.0" stroke="var(--green-muted)" stroke-width="2"/><circle cx="501.7" cy="166.0" r="4.5" fill="var(--db-u)"><title>no state work baseline 0.728</title></circle><circle cx="497.5" cy="166.0" r="5" fill="var(--accent)"><title>no state work pre-run compacted 0.698</title></circle><text x="650.0" y="170.0" text-anchor="start" class="tick">0.73 → 0.70</text><text x="239.9" y="198.0" text-anchor="middle" class="tick">0.05</text><text x="307.6" y="198.0" text-anchor="middle" class="tick">0.1</text><text x="375.4" y="198.0" text-anchor="middle" class="tick">0.2</text><text x="464.9" y="198.0" text-anchor="middle" class="tick">0.5</text><text x="532.6" y="198.0" text-anchor="middle" class="tick">1</text><text x="600.4" y="198.0" text-anchor="middle" class="tick">2</text><circle cx="190.0" cy="208.0" r="4.5" fill="var(--db-u)"></circle><text x="200.0" y="212.0" text-anchor="start" class="tick">baseline</text><circle cx="290.0" cy="208.0" r="5" fill="var(--accent)"></circle><text x="300.0" y="212.0" text-anchor="start" class="tick">jochemnet&#x27;s pre-run compacted, nothing else changed</text></svg>
