<svg class="chart" viewBox="0 0 760 234" role="img" preserveAspectRatio="xMinYMin meet" xmlns="http://www.w3.org/2000/svg"><style>svg{--bg:#000000;--fg:#e2e6e2;--muted:#aab0aa;--dim:#5c645c;--line:#182818;--panel:#0a120a;--accent:#33ff33;--green-dim:#28d128;--green-muted:#1a5a1a;--bad-bg:#2a1214;--bad-fg:#ff9a9f;--good-bg:#0f2a12;--good-fg:#7fd98f;--barbg:#182818;--chip:#0f1f0f;--db-c:#6fb2e8;--db-u:#e8a83a;--db-sa:#b491f0;font:11px 'IBM Plex Mono',ui-monospace,Menlo,monospace}text{fill:var(--fg)}text.tick,text.ax{fill:var(--muted)}text.big{font-size:12px;font-weight:600}</style><rect width="100%" height="100%" fill="var(--bg)"/><rect x="425.1" y="26.0" width="64.5" height="150.0" fill="var(--accent)" opacity="0.1"/><line x1="458.9" y1="26.0" x2="458.9" y2="176.0" stroke="var(--green-muted)" stroke-width="1"/><text x="236.0" y="16.0" text-anchor="start" class="big">throughput, state-actor / jochemnet, before and after taking the JIT out</text><text x="226.0" y="44.0" text-anchor="end" class="tick">control, no state work  (&lt;1 s)</text><line x1="356.0" y1="40.0" x2="501.9" y2="40.0" stroke="var(--green-muted)" stroke-width="2"/><circle cx="356.0" cy="40.0" r="4.5" fill="var(--db-u)"><title>control, no state work, JIT on: 0.726</title></circle><circle cx="501.9" cy="40.0" r="4.5" fill="var(--accent)"><title>control, no state work, JIT off: 1.143</title></circle><text x="656.0" y="44.0" text-anchor="start" class="tick">0.73 → 1.14</text><text x="226.0" y="74.0" text-anchor="end" class="tick">absent account, call  (&lt;1 s)</text><line x1="432.8" y1="70.0" x2="491.6" y2="70.0" stroke="var(--green-muted)" stroke-width="2"/><circle cx="432.8" cy="70.0" r="4.5" fill="var(--db-u)"><title>absent account, call, JIT on: 0.922</title></circle><circle cx="491.6" cy="70.0" r="4.5" fill="var(--accent)"><title>absent account, call, JIT off: 1.107</title></circle><text x="656.0" y="74.0" text-anchor="start" class="tick">0.92 → 1.11</text><text x="226.0" y="104.0" text-anchor="end" class="tick">warm query  (&lt;1 s)</text><line x1="423.5" y1="100.0" x2="582.4" y2="100.0" stroke="var(--green-muted)" stroke-width="2"/><circle cx="423.5" cy="100.0" r="4.5" fill="var(--db-u)"><title>warm query, JIT on: 0.896</title></circle><circle cx="582.4" cy="100.0" r="4.5" fill="var(--accent)"><title>warm query, JIT off: 1.468</title></circle><text x="656.0" y="104.0" text-anchor="start" class="tick">0.90 → 1.47</text><text x="226.0" y="134.0" text-anchor="end">call, reused contract</text><line x1="452.5" y1="130.0" x2="457.6" y2="130.0" stroke="var(--green-muted)" stroke-width="2"/><circle cx="452.5" cy="130.0" r="4.5" fill="var(--db-u)"><title>call, reused contract, JIT on: 0.980</title></circle><circle cx="457.6" cy="130.0" r="4.5" fill="var(--accent)"><title>call, reused contract, JIT off: 0.996</title></circle><text x="656.0" y="134.0" text-anchor="start" class="tick">0.98 → 1.00</text><text x="226.0" y="164.0" text-anchor="end">call, distinct contract</text><line x1="316.6" y1="160.0" x2="440.3" y2="160.0" stroke="var(--green-muted)" stroke-width="2"/><circle cx="316.6" cy="160.0" r="4.5" fill="var(--db-u)"><title>call, distinct contract, JIT on: 0.642</title></circle><circle cx="440.3" cy="160.0" r="4.5" fill="var(--accent)"><title>call, distinct contract, JIT off: 0.944</title></circle><text x="656.0" y="164.0" text-anchor="start" class="tick">0.64 → 0.94</text><text x="236.0" y="196.0" text-anchor="middle" class="tick">0.5</text><text x="366.4" y="196.0" text-anchor="middle" class="tick">0.75</text><text x="458.9" y="196.0" text-anchor="middle" class="tick">1</text><text x="530.7" y="196.0" text-anchor="middle" class="tick">1.25</text><text x="589.4" y="196.0" text-anchor="middle" class="tick">1.5</text><circle cx="236.0" cy="222.0" r="4.5" fill="var(--db-u)"></circle><text x="246.0" y="226.0" text-anchor="start" class="tick">as published</text><circle cx="366.0" cy="222.0" r="4.5" fill="var(--accent)"></circle><text x="376.0" y="226.0" text-anchor="start" class="tick">tiered compilation off, both arms</text></svg>
