<svg class="chart" viewBox="0 0 760 348" role="img" preserveAspectRatio="xMinYMin meet" xmlns="http://www.w3.org/2000/svg"><style>svg{--bg:#000000;--fg:#e2e6e2;--muted:#aab0aa;--dim:#5c645c;--line:#182818;--panel:#0a120a;--accent:#33ff33;--green-dim:#28d128;--green-muted:#1a5a1a;--bad-bg:#2a1214;--bad-fg:#ff9a9f;--good-bg:#0f2a12;--good-fg:#7fd98f;--barbg:#182818;--chip:#0f1f0f;--db-c:#6fb2e8;--db-u:#e8a83a;--db-sa:#b491f0;font:11px 'IBM Plex Mono',ui-monospace,Menlo,monospace}text{fill:var(--fg)}text.tick,text.ax{fill:var(--muted)}text.big{font-size:12px;font-weight:600}</style><rect width="100%" height="100%" fill="var(--bg)"/><text x="8.0" y="16.0" text-anchor="start" class="big">state-actor / jochemnet at each stage (log; band = ±10%)</text><text x="8.0" y="44.0" text-anchor="start" class="big">tests ≥ 1 s</text><rect x="36.0" y="90.1" width="108.0" height="3.2" fill="var(--accent)" opacity="0.1"/><line x1="36.0" y1="91.7" x2="144.0" y2="91.7" stroke="var(--green-muted)" stroke-width="1"/><text x="36.0" y="62.0" text-anchor="start" class="tick">account reads</text><text x="32.0" y="132.7" text-anchor="end" class="tick">0.1</text><text x="32.0" y="95.7" text-anchor="end" class="tick">1</text><line x1="36.0" y1="137.5" x2="63.0" y2="92.0" stroke="var(--accent)" stroke-width="1.5"/><line x1="63.0" y1="92.0" x2="90.0" y2="91.7" stroke="var(--accent)" stroke-width="1.5"/><line x1="90.0" y1="91.7" x2="117.0" y2="91.7" stroke="var(--accent)" stroke-width="1.5"/><line x1="117.0" y1="91.7" x2="144.0" y2="91.7" stroke="var(--accent)" stroke-width="1.5"/><circle cx="36.0" cy="137.5" r="3.5" fill="var(--db-u)"><title>account reads, tests ≥ 1 s, baseline: 0.058</title></circle><circle cx="63.0" cy="92.0" r="3.5" fill="var(--accent)"><title>account reads, tests ≥ 1 s, pre-run: 0.977</title></circle><circle cx="90.0" cy="91.7" r="3.5" fill="var(--accent)"><title>account reads, tests ≥ 1 s, warm-up: 0.996</title></circle><circle cx="117.0" cy="91.7" r="3.5" fill="var(--accent)"><title>account reads, tests ≥ 1 s, code pool: 0.997</title></circle><circle cx="144.0" cy="91.7" r="3.5" fill="var(--accent)"><title>account reads, tests ≥ 1 s, final: 0.995</title></circle><text x="36.0" y="164.0" text-anchor="middle" class="tick">0</text><text x="63.0" y="164.0" text-anchor="middle" class="tick">1</text><text x="90.0" y="164.0" text-anchor="middle" class="tick">2</text><text x="117.0" y="164.0" text-anchor="middle" class="tick">3</text><text x="144.0" y="164.0" text-anchor="middle" class="tick">4</text><rect x="186.0" y="90.1" width="108.0" height="3.2" fill="var(--accent)" opacity="0.1"/><line x1="186.0" y1="91.7" x2="294.0" y2="91.7" stroke="var(--green-muted)" stroke-width="1"/><text x="186.0" y="62.0" text-anchor="start" class="tick">code, reused or small</text><text x="182.0" y="132.7" text-anchor="end" class="tick">0.1</text><text x="182.0" y="95.7" text-anchor="end" class="tick">1</text><line x1="186.0" y1="135.4" x2="213.0" y2="92.0" stroke="var(--accent)" stroke-width="1.5"/><line x1="213.0" y1="92.0" x2="240.0" y2="91.7" stroke="var(--accent)" stroke-width="1.5"/><line x1="240.0" y1="91.7" x2="267.0" y2="91.7" stroke="var(--accent)" stroke-width="1.5"/><line x1="267.0" y1="91.7" x2="294.0" y2="91.7" stroke="var(--accent)" stroke-width="1.5"/><circle cx="186.0" cy="135.4" r="3.5" fill="var(--db-u)"><title>code, reused or small, tests ≥ 1 s, baseline: 0.066</title></circle><circle cx="213.0" cy="92.0" r="3.5" fill="var(--accent)"><title>code, reused or small, tests ≥ 1 s, pre-run: 0.981</title></circle><circle cx="240.0" cy="91.7" r="3.5" fill="var(--accent)"><title>code, reused or small, tests ≥ 1 s, warm-up: 0.998</title></circle><circle cx="267.0" cy="91.7" r="3.5" fill="var(--accent)"><title>code, reused or small, tests ≥ 1 s, code pool: 0.998</title></circle><circle cx="294.0" cy="91.7" r="3.5" fill="var(--accent)"><title>code, reused or small, tests ≥ 1 s, final: 1.000</title></circle><text x="186.0" y="164.0" text-anchor="middle" class="tick">0</text><text x="213.0" y="164.0" text-anchor="middle" class="tick">1</text><text x="240.0" y="164.0" text-anchor="middle" class="tick">2</text><text x="267.0" y="164.0" text-anchor="middle" class="tick">3</text><text x="294.0" y="164.0" text-anchor="middle" class="tick">4</text><rect x="336.0" y="90.1" width="108.0" height="3.2" fill="var(--accent)" opacity="0.1"/><line x1="336.0" y1="91.7" x2="444.0" y2="91.7" stroke="var(--green-muted)" stroke-width="1"/><text x="336.0" y="62.0" text-anchor="start" class="tick">code, distinct large</text><text x="332.0" y="132.7" text-anchor="end" class="tick">0.1</text><text x="332.0" y="95.7" text-anchor="end" class="tick">1</text><line x1="336.0" y1="109.2" x2="363.0" y2="93.9" stroke="var(--accent)" stroke-width="1.5"/><line x1="363.0" y1="93.9" x2="390.0" y2="92.6" stroke="var(--accent)" stroke-width="1.5"/><line x1="390.0" y1="92.6" x2="417.0" y2="90.2" stroke="var(--accent)" stroke-width="1.5"/><line x1="417.0" y1="90.2" x2="444.0" y2="90.2" stroke="var(--accent)" stroke-width="1.5"/><circle cx="336.0" cy="109.2" r="3.5" fill="var(--db-u)"><title>code, distinct large, tests ≥ 1 s, baseline: 0.335</title></circle><circle cx="363.0" cy="93.9" r="3.5" fill="var(--db-u)"><title>code, distinct large, tests ≥ 1 s, pre-run: 0.870</title></circle><circle cx="390.0" cy="92.6" r="3.5" fill="var(--accent)"><title>code, distinct large, tests ≥ 1 s, warm-up: 0.941</title></circle><circle cx="417.0" cy="90.2" r="3.5" fill="var(--accent)"><title>code, distinct large, tests ≥ 1 s, code pool: 1.094</title></circle><circle cx="444.0" cy="90.2" r="3.5" fill="var(--accent)"><title>code, distinct large, tests ≥ 1 s, final: 1.095</title></circle><text x="336.0" y="164.0" text-anchor="middle" class="tick">0</text><text x="363.0" y="164.0" text-anchor="middle" class="tick">1</text><text x="390.0" y="164.0" text-anchor="middle" class="tick">2</text><text x="417.0" y="164.0" text-anchor="middle" class="tick">3</text><text x="444.0" y="164.0" text-anchor="middle" class="tick">4</text><rect x="486.0" y="90.1" width="108.0" height="3.2" fill="var(--accent)" opacity="0.1"/><line x1="486.0" y1="91.7" x2="594.0" y2="91.7" stroke="var(--green-muted)" stroke-width="1"/><text x="486.0" y="62.0" text-anchor="start" class="tick">storage</text><text x="482.0" y="132.7" text-anchor="end" class="tick">0.1</text><text x="482.0" y="95.7" text-anchor="end" class="tick">1</text><line x1="486.0" y1="91.7" x2="594.0" y2="91.6" stroke="var(--green-muted)" stroke-width="1.5" stroke-dasharray="3 3"/><circle cx="486.0" cy="91.7" r="3.5" fill="var(--accent)"><title>storage, tests ≥ 1 s, baseline: 0.999</title></circle><circle cx="594.0" cy="91.6" r="3.5" fill="var(--accent)"><title>storage, tests ≥ 1 s, final: 1.001</title></circle><text x="486.0" y="164.0" text-anchor="middle" class="tick">0</text><text x="513.0" y="164.0" text-anchor="middle" class="tick">1</text><text x="540.0" y="164.0" text-anchor="middle" class="tick">2</text><text x="567.0" y="164.0" text-anchor="middle" class="tick">3</text><text x="594.0" y="164.0" text-anchor="middle" class="tick">4</text><rect x="636.0" y="90.1" width="108.0" height="3.2" fill="var(--accent)" opacity="0.1"/><line x1="636.0" y1="91.7" x2="744.0" y2="91.7" stroke="var(--green-muted)" stroke-width="1"/><text x="636.0" y="62.0" text-anchor="start" class="tick">ether transfers</text><text x="632.0" y="132.7" text-anchor="end" class="tick">0.1</text><text x="632.0" y="95.7" text-anchor="end" class="tick">1</text><line x1="636.0" y1="107.2" x2="744.0" y2="90.8" stroke="var(--green-muted)" stroke-width="1.5" stroke-dasharray="3 3"/><circle cx="636.0" cy="107.2" r="3.5" fill="var(--db-u)"><title>ether transfers, tests ≥ 1 s, baseline: 0.381</title></circle><circle cx="744.0" cy="90.8" r="3.5" fill="var(--accent)"><title>ether transfers, tests ≥ 1 s, final: 1.054</title></circle><text x="636.0" y="164.0" text-anchor="middle" class="tick">0</text><text x="663.0" y="164.0" text-anchor="middle" class="tick">1</text><text x="690.0" y="164.0" text-anchor="middle" class="tick">2</text><text x="717.0" y="164.0" text-anchor="middle" class="tick">3</text><text x="744.0" y="164.0" text-anchor="middle" class="tick">4</text><text x="8.0" y="202.0" text-anchor="start" class="big">tests &lt; 1 s</text><rect x="36.0" y="248.1" width="108.0" height="3.2" fill="var(--accent)" opacity="0.1"/><line x1="36.0" y1="249.7" x2="144.0" y2="249.7" stroke="var(--green-muted)" stroke-width="1"/><text x="36.0" y="220.0" text-anchor="start" class="tick">storage</text><text x="32.0" y="290.7" text-anchor="end" class="tick">0.1</text><text x="32.0" y="253.7" text-anchor="end" class="tick">1</text><line x1="36.0" y1="248.4" x2="144.0" y2="249.4" stroke="var(--green-muted)" stroke-width="1.5" stroke-dasharray="3 3"/><circle cx="36.0" cy="248.4" r="3.5" fill="var(--accent)"><title>storage, tests &lt; 1 s, baseline: 1.080</title></circle><circle cx="144.0" cy="249.4" r="3.5" fill="var(--accent)"><title>storage, tests &lt; 1 s, final: 1.018</title></circle><text x="36.0" y="322.0" text-anchor="middle" class="tick">0</text><text x="63.0" y="322.0" text-anchor="middle" class="tick">1</text><text x="90.0" y="322.0" text-anchor="middle" class="tick">2</text><text x="117.0" y="322.0" text-anchor="middle" class="tick">3</text><text x="144.0" y="322.0" text-anchor="middle" class="tick">4</text><rect x="186.0" y="248.1" width="108.0" height="3.2" fill="var(--accent)" opacity="0.1"/><line x1="186.0" y1="249.7" x2="294.0" y2="249.7" stroke="var(--green-muted)" stroke-width="1"/><text x="186.0" y="220.0" text-anchor="start" class="tick">absent accounts</text><text x="182.0" y="290.7" text-anchor="end" class="tick">0.1</text><text x="182.0" y="253.7" text-anchor="end" class="tick">1</text><line x1="186.0" y1="249.3" x2="213.0" y2="250.7" stroke="var(--accent)" stroke-width="1.5"/><line x1="213.0" y1="250.7" x2="240.0" y2="246.1" stroke="var(--accent)" stroke-width="1.5"/><line x1="240.0" y1="246.1" x2="294.0" y2="247.4" stroke="var(--green-muted)" stroke-width="1.5" stroke-dasharray="3 3"/><circle cx="186.0" cy="249.3" r="3.5" fill="var(--accent)"><title>absent accounts, tests &lt; 1 s, baseline: 1.021</title></circle><circle cx="213.0" cy="250.7" r="3.5" fill="var(--accent)"><title>absent accounts, tests &lt; 1 s, pre-run: 0.940</title></circle><circle cx="240.0" cy="246.1" r="3.5" fill="var(--db-u)"><title>absent accounts, tests &lt; 1 s, warm-up: 1.249</title></circle><circle cx="294.0" cy="247.4" r="3.5" fill="var(--db-u)"><title>absent accounts, tests &lt; 1 s, final: 1.152</title></circle><text x="186.0" y="322.0" text-anchor="middle" class="tick">0</text><text x="213.0" y="322.0" text-anchor="middle" class="tick">1</text><text x="240.0" y="322.0" text-anchor="middle" class="tick">2</text><text x="267.0" y="322.0" text-anchor="middle" class="tick">3</text><text x="294.0" y="322.0" text-anchor="middle" class="tick">4</text><rect x="336.0" y="248.1" width="108.0" height="3.2" fill="var(--accent)" opacity="0.1"/><line x1="336.0" y1="249.7" x2="444.0" y2="249.7" stroke="var(--green-muted)" stroke-width="1"/><text x="336.0" y="220.0" text-anchor="start" class="tick">no state work</text><text x="332.0" y="290.7" text-anchor="end" class="tick">0.1</text><text x="332.0" y="253.7" text-anchor="end" class="tick">1</text><line x1="336.0" y1="254.8" x2="363.0" y2="255.4" stroke="var(--accent)" stroke-width="1.5"/><line x1="363.0" y1="255.4" x2="390.0" y2="247.4" stroke="var(--accent)" stroke-width="1.5"/><line x1="390.0" y1="247.4" x2="444.0" y2="247.4" stroke="var(--green-muted)" stroke-width="1.5" stroke-dasharray="3 3"/><circle cx="336.0" cy="254.8" r="3.5" fill="var(--db-u)"><title>no state work, tests &lt; 1 s, baseline: 0.728</title></circle><circle cx="363.0" cy="255.4" r="3.5" fill="var(--db-u)"><title>no state work, tests &lt; 1 s, pre-run: 0.698</title></circle><circle cx="390.0" cy="247.4" r="3.5" fill="var(--db-u)"><title>no state work, tests &lt; 1 s, warm-up: 1.151</title></circle><circle cx="444.0" cy="247.4" r="3.5" fill="var(--db-u)"><title>no state work, tests &lt; 1 s, final: 1.150</title></circle><text x="336.0" y="322.0" text-anchor="middle" class="tick">0</text><text x="363.0" y="322.0" text-anchor="middle" class="tick">1</text><text x="390.0" y="322.0" text-anchor="middle" class="tick">2</text><text x="417.0" y="322.0" text-anchor="middle" class="tick">3</text><text x="444.0" y="322.0" text-anchor="middle" class="tick">4</text></svg>
