<svg class="chart" viewBox="0 0 760 318" role="img" preserveAspectRatio="xMinYMin meet" xmlns="http://www.w3.org/2000/svg"><style>svg{--bg:#000000;--fg:#e2e6e2;--muted:#aab0aa;--dim:#5c645c;--line:#182818;--panel:#0a120a;--accent:#33ff33;--green-dim:#28d128;--green-muted:#1a5a1a;--bad-bg:#2a1214;--bad-fg:#ff9a9f;--good-bg:#0f2a12;--good-fg:#7fd98f;--barbg:#182818;--chip:#0f1f0f;--db-c:#6fb2e8;--db-u:#e8a83a;--db-sa:#b491f0;font:11px 'IBM Plex Mono',ui-monospace,Menlo,monospace}text{fill:var(--fg)}text.tick,text.ax{fill:var(--muted)}text.big{font-size:12px;font-weight:600}</style><rect width="100%" height="100%" fill="var(--bg)"/><text x="184.4" y="32.0" text-anchor="middle" class="tick">EOA</text><text x="309.2" y="32.0" text-anchor="middle" class="tick">MINIMAL</text><text x="434.0" y="32.0" text-anchor="middle" class="tick">SAME_MAX</text><text x="558.8" y="32.0" text-anchor="middle" class="tick">JUMPDEST</text><text x="683.6" y="32.0" text-anchor="middle" class="tick">DIFF_MAX</text><text x="114.0" y="63.0" text-anchor="end">BALANCE</text><rect x="123.0" y="46.0" width="122.8" height="26.0" fill="var(--accent)" opacity="0.105"/><text x="184.4" y="63.0" text-anchor="middle">0.98</text><rect x="247.8" y="46.0" width="122.8" height="26.0" fill="var(--accent)" opacity="0.121"/><text x="309.2" y="63.0" text-anchor="middle">0.97</text><rect x="372.6" y="46.0" width="122.8" height="26.0" fill="var(--accent)" opacity="0.107"/><text x="434.0" y="63.0" text-anchor="middle">0.98</text><rect x="497.4" y="46.0" width="122.8" height="26.0" fill="var(--accent)" opacity="0.114"/><text x="558.8" y="63.0" text-anchor="middle">0.97</text><rect x="622.2" y="46.0" width="122.8" height="26.0" fill="var(--accent)" opacity="0.119"/><text x="683.6" y="63.0" text-anchor="middle">0.97</text><text x="114.0" y="93.0" text-anchor="end">CALL</text><rect x="123.0" y="76.0" width="122.8" height="26.0" fill="var(--accent)" opacity="0.079"/><text x="184.4" y="93.0" text-anchor="middle">0.99</text><rect x="247.8" y="76.0" width="122.8" height="26.0" fill="var(--accent)" opacity="0.087"/><text x="309.2" y="93.0" text-anchor="middle">0.99</text><rect x="372.6" y="76.0" width="122.8" height="26.0" fill="var(--accent)" opacity="0.077"/><text x="434.0" y="93.0" text-anchor="middle">0.99</text><rect x="497.4" y="76.0" width="122.8" height="26.0" fill="var(--accent)" opacity="0.138"/><text x="558.8" y="93.0" text-anchor="middle">0.96</text><rect x="622.2" y="76.0" width="122.8" height="26.0" fill="var(--accent)" opacity="0.494"/><text x="683.6" y="93.0" text-anchor="middle">0.77</text><text x="114.0" y="123.0" text-anchor="end">CALLCODE</text><rect x="123.0" y="106.0" width="122.8" height="26.0" fill="var(--accent)" opacity="0.094"/><text x="184.4" y="123.0" text-anchor="middle">0.98</text><rect x="247.8" y="106.0" width="122.8" height="26.0" fill="var(--accent)" opacity="0.075"/><text x="309.2" y="123.0" text-anchor="middle">0.99</text><rect x="372.6" y="106.0" width="122.8" height="26.0" fill="var(--accent)" opacity="0.078"/><text x="434.0" y="123.0" text-anchor="middle">0.99</text><rect x="497.4" y="106.0" width="122.8" height="26.0" fill="var(--accent)" opacity="0.196"/><text x="558.8" y="123.0" text-anchor="middle">0.93</text><rect x="622.2" y="106.0" width="122.8" height="26.0" fill="var(--accent)" opacity="0.648"/><text x="683.6" y="123.0" text-anchor="middle">0.69</text><text x="114.0" y="153.0" text-anchor="end">DELEGATECALL</text><rect x="123.0" y="136.0" width="122.8" height="26.0" fill="var(--accent)" opacity="0.1"/><text x="184.4" y="153.0" text-anchor="middle">0.98</text><rect x="247.8" y="136.0" width="122.8" height="26.0" fill="var(--accent)" opacity="0.101"/><text x="309.2" y="153.0" text-anchor="middle">0.98</text><rect x="372.6" y="136.0" width="122.8" height="26.0" fill="var(--accent)" opacity="0.099"/><text x="434.0" y="153.0" text-anchor="middle">0.98</text><rect x="497.4" y="136.0" width="122.8" height="26.0" fill="var(--accent)" opacity="0.221"/><text x="558.8" y="153.0" text-anchor="middle">0.92</text><rect x="622.2" y="136.0" width="122.8" height="26.0" fill="var(--accent)" opacity="0.756"/><text x="683.6" y="153.0" text-anchor="middle">0.64</text><text x="114.0" y="183.0" text-anchor="end">EXTCODECOPY</text><rect x="123.0" y="166.0" width="122.8" height="26.0" fill="var(--accent)" opacity="0.123"/><text x="184.4" y="183.0" text-anchor="middle">0.97</text><rect x="247.8" y="166.0" width="122.8" height="26.0" fill="var(--accent)" opacity="0.099"/><text x="309.2" y="183.0" text-anchor="middle">0.98</text><rect x="372.6" y="166.0" width="122.8" height="26.0" fill="var(--accent)" opacity="0.1"/><text x="434.0" y="183.0" text-anchor="middle">0.98</text><rect x="497.4" y="166.0" width="122.8" height="26.0" fill="var(--accent)" opacity="0.206"/><text x="558.8" y="183.0" text-anchor="middle">0.92</text><rect x="622.2" y="166.0" width="122.8" height="26.0" fill="var(--accent)" opacity="0.755"/><text x="683.6" y="183.0" text-anchor="middle">0.64</text><text x="114.0" y="213.0" text-anchor="end">EXTCODEHASH</text><rect x="123.0" y="196.0" width="122.8" height="26.0" fill="var(--accent)" opacity="0.106"/><text x="184.4" y="213.0" text-anchor="middle">0.98</text><rect x="247.8" y="196.0" width="122.8" height="26.0" fill="var(--accent)" opacity="0.103"/><text x="309.2" y="213.0" text-anchor="middle">0.98</text><rect x="372.6" y="196.0" width="122.8" height="26.0" fill="var(--accent)" opacity="0.104"/><text x="434.0" y="213.0" text-anchor="middle">0.98</text><rect x="497.4" y="196.0" width="122.8" height="26.0" fill="var(--accent)" opacity="0.112"/><text x="558.8" y="213.0" text-anchor="middle">0.97</text><rect x="622.2" y="196.0" width="122.8" height="26.0" fill="var(--accent)" opacity="0.114"/><text x="683.6" y="213.0" text-anchor="middle">0.97</text><text x="114.0" y="243.0" text-anchor="end">EXTCODESIZE</text><rect x="123.0" y="226.0" width="122.8" height="26.0" fill="var(--accent)" opacity="0.113"/><text x="184.4" y="243.0" text-anchor="middle">0.97</text><rect x="247.8" y="226.0" width="122.8" height="26.0" fill="var(--accent)" opacity="0.11"/><text x="309.2" y="243.0" text-anchor="middle">0.97</text><rect x="372.6" y="226.0" width="122.8" height="26.0" fill="var(--accent)" opacity="0.113"/><text x="434.0" y="243.0" text-anchor="middle">0.97</text><rect x="497.4" y="226.0" width="122.8" height="26.0" fill="var(--accent)" opacity="0.206"/><text x="558.8" y="243.0" text-anchor="middle">0.92</text><rect x="622.2" y="226.0" width="122.8" height="26.0" fill="var(--accent)" opacity="0.78"/><text x="683.6" y="243.0" text-anchor="middle">0.63</text><text x="114.0" y="273.0" text-anchor="end">STATICCALL</text><rect x="123.0" y="256.0" width="122.8" height="26.0" fill="var(--accent)" opacity="0.106"/><text x="184.4" y="273.0" text-anchor="middle">0.98</text><rect x="247.8" y="256.0" width="122.8" height="26.0" fill="var(--accent)" opacity="0.114"/><text x="309.2" y="273.0" text-anchor="middle">0.97</text><rect x="372.6" y="256.0" width="122.8" height="26.0" fill="var(--accent)" opacity="0.093"/><text x="434.0" y="273.0" text-anchor="middle">0.98</text><rect x="497.4" y="256.0" width="122.8" height="26.0" fill="var(--accent)" opacity="0.212"/><text x="558.8" y="273.0" text-anchor="middle">0.92</text><rect x="622.2" y="256.0" width="122.8" height="26.0" fill="var(--accent)" opacity="0.778"/><text x="683.6" y="273.0" text-anchor="middle">0.63</text><text x="434.0" y="312.0" text-anchor="middle" class="ax">throughput ratio per cell; brighter = further from parity</text></svg>
