<svg class="chart" viewBox="0 0 760 320" role="img" preserveAspectRatio="xMinYMin meet" xmlns="http://www.w3.org/2000/svg"><style>svg{--bg:#000000;--fg:#e2e6e2;--muted:#aab0aa;--dim:#5c645c;--line:#182818;--panel:#0a120a;--accent:#33ff33;--green-dim:#28d128;--green-muted:#1a5a1a;--bad-bg:#2a1214;--bad-fg:#ff9a9f;--good-bg:#0f2a12;--good-fg:#7fd98f;--barbg:#182818;--chip:#0f1f0f;--db-c:#6fb2e8;--db-u:#e8a83a;--db-sa:#b491f0;font:11px 'IBM Plex Mono',ui-monospace,Menlo,monospace}text{fill:var(--fg)}text.tick,text.ax{fill:var(--muted)}text.big{font-size:12px;font-weight:600}</style><rect width="100%" height="100%" fill="var(--bg)"/><line x1="62.0" y1="260.0" x2="740.0" y2="260.0" stroke="var(--line)" stroke-width="1"/><text x="54.0" y="264.0" text-anchor="end" class="tick">0 MB</text><line x1="62.0" y1="160.9" x2="740.0" y2="160.9" stroke="var(--line)" stroke-width="1"/><text x="54.0" y="164.9" text-anchor="end" class="tick">468 MB</text><line x1="62.0" y1="61.8" x2="740.0" y2="61.8" stroke="var(--line)" stroke-width="1"/><text x="54.0" y="65.8" text-anchor="end" class="tick">937 MB</text><line x1="62.0" y1="222.0" x2="740.0" y2="222.0" stroke="var(--db-u)" stroke-width="1.5" stroke-dasharray="5 4"/><text x="740.0" y="215.0" text-anchor="end" class="tick">fixed term ≈ 179 MB</text><rect x="89.1" y="237.2" width="81.4" height="22.8" fill="var(--accent)" opacity="0.34"/><text x="129.8" y="230.2" text-anchor="middle" class="big">108</text><text x="129.8" y="276.0" text-anchor="middle" class="tick">0-10 MB</text><text x="129.8" y="290.0" text-anchor="middle" class="tick">n=543</text><text x="129.8" y="304.0" text-anchor="middle" class="tick">×62.7 bytes</text><text x="129.8" y="318.0" text-anchor="middle" class="tick">thr 0.73</text><rect x="224.7" y="222.0" width="81.4" height="38.0" fill="var(--accent)" opacity="0.34"/><text x="265.4" y="215.0" text-anchor="middle" class="big">179</text><text x="265.4" y="276.0" text-anchor="middle" class="tick">10-100 MB</text><text x="265.4" y="290.0" text-anchor="middle" class="tick">n=95</text><text x="265.4" y="304.0" text-anchor="middle" class="tick">×5.7 bytes</text><text x="265.4" y="318.0" text-anchor="middle" class="tick">thr 0.87</text><rect x="360.3" y="242.0" width="81.4" height="18.0" fill="var(--accent)" opacity="0.34"/><text x="401.0" y="235.0" text-anchor="middle" class="big">85</text><text x="401.0" y="276.0" text-anchor="middle" class="tick">100-1000 MB</text><text x="401.0" y="290.0" text-anchor="middle" class="tick">n=68</text><text x="401.0" y="304.0" text-anchor="middle" class="tick">×1.4 bytes</text><text x="401.0" y="318.0" text-anchor="middle" class="tick">thr 1.07</text><rect x="495.9" y="217.9" width="81.4" height="42.1" fill="var(--accent)" opacity="0.34"/><text x="536.6" y="210.9" text-anchor="middle" class="big">199</text><text x="536.6" y="276.0" text-anchor="middle" class="tick">1000-4000 MB</text><text x="536.6" y="290.0" text-anchor="middle" class="tick">n=280</text><text x="536.6" y="304.0" text-anchor="middle" class="tick">×1.1 bytes</text><text x="536.6" y="318.0" text-anchor="middle" class="tick">thr 0.98</text><rect x="631.5" y="61.8" width="81.4" height="198.2" fill="var(--accent)" opacity="0.34"/><text x="672.2" y="54.8" text-anchor="middle" class="big">937</text><text x="672.2" y="276.0" text-anchor="middle" class="tick">4000+ MB</text><text x="672.2" y="290.0" text-anchor="middle" class="tick">n=475</text><text x="672.2" y="304.0" text-anchor="middle" class="tick">×1.2 bytes</text><text x="672.2" y="318.0" text-anchor="middle" class="tick">thr 0.97</text><text x="62.0" y="20.0" text-anchor="start" class="big">extra bytes state-actor reads per test</text><text x="740.0" y="20.0" text-anchor="end" class="ax">columns: what the test reads on jochemnet</text></svg>
