<svg xmlns="http://www.w3.org/2000/svg" width="1200" height="656" viewBox="0 0 1200 656" font-family="ui-monospace, SFMono-Regular, Menlo, Consolas, 'DejaVu Sans Mono', monospace"><title>Cheat sheet: which option fits which priority</title><defs><marker id="ah0" viewBox="0 0 10 10" refX="8.5" refY="5" markerWidth="4.2" markerHeight="4.2" orient="auto-start-reverse"><path d="M0,0 L10,5 L0,10 z" fill="#33ff33"/></marker><marker id="ah1" viewBox="0 0 10 10" refX="8.5" refY="5" markerWidth="4.2" markerHeight="4.2" orient="auto-start-reverse"><path d="M0,0 L10,5 L0,10 z" fill="#e8a83a"/></marker><marker id="ah2" viewBox="0 0 10 10" refX="8.5" refY="5" markerWidth="4.2" markerHeight="4.2" orient="auto-start-reverse"><path d="M0,0 L10,5 L0,10 z" fill="#b491f0"/></marker><marker id="ah3" viewBox="0 0 10 10" refX="8.5" refY="5" markerWidth="4.2" markerHeight="4.2" orient="auto-start-reverse"><path d="M0,0 L10,5 L0,10 z" fill="#6fb2e8"/></marker><marker id="ah4" viewBox="0 0 10 10" refX="8.5" refY="5" markerWidth="4.2" markerHeight="4.2" orient="auto-start-reverse"><path d="M0,0 L10,5 L0,10 z" fill="#ff9a9f"/></marker><marker id="ah5" viewBox="0 0 10 10" refX="8.5" refY="5" markerWidth="4.2" markerHeight="4.2" orient="auto-start-reverse"><path d="M0,0 L10,5 L0,10 z" fill="#aab0aa"/></marker></defs><rect width="1200" height="656" fill="#050805"/><text x="30" y="46.0" font-size="22" fill="#33ff33" font-weight="700" letter-spacing="2">// cheat sheet</text><text x="40" y="104.0" font-size="22" fill="#aab0aa">if you care most about</text><text x="700" y="104.0" font-size="22" fill="#aab0aa">pick</text><text x="830" y="104.0" font-size="22" fill="#aab0aa">because</text><rect x="20" y="126" width="1160" height="90" rx="8" fill="#0a120a" stroke="#182818" stroke-width="2"/><text x="40" y="179.0" font-size="24" fill="#e2e6e2" font-weight="700">the smallest Hegotá scope</text><rect x="700" y="151.0" width="40.879999999999995" height="40" rx="20.0" fill="#2a1f08" stroke="#e8a83a" stroke-width="2"/><text x="720.44" y="179.6" font-size="24" fill="#e8a83a" text-anchor="middle">B</text><rect x="760" y="151.0" width="40.879999999999995" height="40" rx="20.0" fill="#0b1d2c" stroke="#6fb2e8" stroke-width="2"/><text x="780.44" y="179.6" font-size="24" fill="#6fb2e8" text-anchor="middle">C</text><text x="830" y="179.0" font-size="21" fill="#aab0aa">nothing to build now</text><rect x="20" y="226" width="1160" height="90" rx="8" fill="#0a120a" stroke="#182818" stroke-width="2"/><text x="40" y="279.0" font-size="24" fill="#e2e6e2" font-weight="700">the simplest PBT spec</text><rect x="700" y="251.0" width="40.879999999999995" height="40" rx="20.0" fill="#0b1d2c" stroke="#6fb2e8" stroke-width="2"/><text x="720.44" y="279.6" font-size="24" fill="#6fb2e8" text-anchor="middle">C</text><text x="830" y="279.0" font-size="21" fill="#aab0aa">one sentence, no count</text><rect x="20" y="326" width="1160" height="90" rx="8" fill="#0a120a" stroke="#182818" stroke-width="2"/><text x="40" y="364.0" font-size="24" fill="#e2e6e2" font-weight="700">keeping the PBT EIPs free of</text><text x="40" y="394.0" font-size="24" fill="#e2e6e2" font-weight="700">other EIPs' debt</text><rect x="700" y="351.0" width="40.879999999999995" height="40" rx="20.0" fill="#0f2a12" stroke="#33ff33" stroke-width="2"/><text x="720.44" y="379.6" font-size="24" fill="#33ff33" text-anchor="middle">A</text><text x="830" y="379.0" font-size="21" fill="#aab0aa">PBT gets it solved</text><rect x="20" y="426" width="1160" height="90" rx="8" fill="#0a120a" stroke="#182818" stroke-width="2"/><text x="40" y="479.0" font-size="24" fill="#e2e6e2" font-weight="700">taking dead code back out</text><rect x="700" y="451.0" width="40.879999999999995" height="40" rx="20.0" fill="#0f2a12" stroke="#33ff33" stroke-width="2"/><text x="720.44" y="479.6" font-size="24" fill="#33ff33" text-anchor="middle">A</text><text x="830" y="479.0" font-size="21" fill="#aab0aa">goes with its last holder</text><rect x="20" y="526" width="1160" height="90" rx="8" fill="#0a120a" stroke="#182818" stroke-width="2"/><text x="40" y="564.0" font-size="24" fill="#e2e6e2" font-weight="700">catching count bugs before</text><text x="40" y="594.0" font-size="24" fill="#e2e6e2" font-weight="700">they can move the root</text><rect x="700" y="551.0" width="40.879999999999995" height="40" rx="20.0" fill="#0f2a12" stroke="#33ff33" stroke-width="2"/><text x="720.44" y="579.6" font-size="24" fill="#33ff33" text-anchor="middle">A</text><text x="830" y="579.0" font-size="21" fill="#aab0aa">an MPT bug leaks or stalls</text></svg>
